<svg width="132" height="24" viewBox="0 0 132 24" fill="none" xmlns="http://www.w3.org/2000/svg">
<path d="M11.9817 17.217L17.9541 20.8217L16.3692 14.0278L21.6458 9.45674L14.6973 8.86723L11.9817 2.45996L9.26609 8.86723L2.31763 9.45674L7.5942 14.0278L6.0093 20.8217L11.9817 17.217Z" fill="#EDD146"/>
<path d="M39.041 17.217L45.0134 20.8217L43.4285 14.0278L48.7051 9.45674L41.7566 8.86723L39.041 2.45996L36.3254 8.86723L29.377 9.45674L34.6535 14.0278L33.0686 20.8217L39.041 17.217Z" fill="#EDD146"/>
<path d="M66.1003 17.217L72.0727 20.8217L70.4878 14.0278L75.7644 9.45674L68.8159 8.86723L66.1003 2.45996L63.3847 8.86723L56.4363 9.45674L61.7129 14.0278L60.128 20.8217L66.1003 17.217Z" fill="#EDD146"/>
<path d="M102.824 9.45674L95.8755 8.85757L93.1599 2.45996L90.4443 8.86723L83.4958 9.45674L88.7724 14.0278L87.1875 20.8217L93.1599 17.217L99.1323 20.8217L97.5571 14.0278L102.824 9.45674ZM93.1599 15.4098V6.42223L94.8125 10.3265L99.0453 10.6937L95.8369 13.477L96.8033 17.6132L93.1599 15.4098Z" fill="#EDD146"/>
<path d="M129.883 9.45674L122.935 8.85757L120.219 2.45996L117.504 8.86723L110.555 9.45674L115.832 14.0278L114.247 20.8217L120.219 17.217L126.192 20.8217L124.616 14.0278L129.883 9.45674ZM120.219 15.4098L116.586 17.6035L117.552 13.4673L114.343 10.6841L118.576 10.3168L120.219 6.42223L121.872 10.3265L126.105 10.6937L122.896 13.477L123.863 17.6132L120.219 15.4098Z" fill="#EDD146"/>
</svg>
